# Exported from ProBuilder
# http://www.procore3d.com/probuilder
# 4/29/2018 7:38:46 PM

mtllib ./Crossbow.mtl
o Crossbow

g Crossbow
v -0.1 0 0 0.853 0.434 0.122
v -0.1 0 -0.1 0.853 0.434 0.122
v -0.1 0.0566235 0 0.853 0.434 0.122
v -0.1 0.0566235 -0.1 0.853 0.434 0.122
v 0 0 -0.1 0.853 0.434 0.122
v 0 0 0 0.853 0.434 0.122
v 0 0.0566235 -0.1 0.853 0.434 0.122
v 0 0.0566235 0 0.853 0.434 0.122
v 0 -0.1245579 -0.1341179 0.853 0.434 0.122
v -0.1 -0.1245579 -0.1341179 0.853 0.434 0.122
v 0 -0.1245579 -0.0341179 0.853 0.434 0.122
v -0.1 -0.1245579 -0.0341179 0.853 0.434 0.122
v 0 0 0 0.853 0.434 0.122
v -0.1 0 0 0.853 0.434 0.122
v 0 0 0.09582385 0.853 0.434 0.122
v -0.1 0 0.09582385 0.853 0.434 0.122
v 0 0.0566235 0 0.853 0.434 0.122
v 0 0 0 0.853 0.434 0.122
v 0 0.0566235 0.09582385 0.853 0.434 0.122
v 0 0 0.09582385 0.853 0.434 0.122
v -0.1 0 0 0.853 0.434 0.122
v -0.1 0.0566235 0 0.853 0.434 0.122
v -0.1 0 0.09582385 0.853 0.434 0.122
v -0.1 0.0566235 0.09582385 0.853 0.434 0.122
v 0 0 0.09582385 0.853 0.434 0.122
v -0.1 0 0.09582385 0.853 0.434 0.122
v 0 0 0.1951863 0.853 0.434 0.122
v -0.1 0 0.1951863 0.853 0.434 0.122
v 0 0.0566235 0.09582385 0.853 0.434 0.122
v 0 0 0.09582385 0.853 0.434 0.122
v 0 0.0566235 0.1951863 0.853 0.434 0.122
v 0 0 0.1951863 0.853 0.434 0.122
v -0.1 0 0.09582385 0.853 0.434 0.122
v -0.1 0.0566235 0.09582385 0.853 0.434 0.122
v -0.1 0 0.1951863 0.853 0.434 0.122
v -0.1 0.0566235 0.1951863 0.853 0.434 0.122
v 0 0 -0.1 0.853 0.434 0.122
v -0.1 0 -0.1 0.853 0.434 0.122
v 0 -0.1245579 -0.1341179 0.853 0.434 0.122
v -0.1 -0.1245579 -0.1341179 0.853 0.434 0.122
v 0 0 0 0.853 0.434 0.122
v 0 0 -0.1 0.853 0.434 0.122
v 0 -0.1245579 -0.0341179 0.853 0.434 0.122
v 0 -0.1245579 -0.1341179 0.853 0.434 0.122
v -0.1 0 -0.1 0.853 0.434 0.122
v -0.1 0 0 0.853 0.434 0.122
v -0.1 -0.1245579 -0.1341179 0.853 0.434 0.122
v -0.1 -0.1245579 -0.0341179 0.853 0.434 0.122
v -0.1 0 0 0.853 0.434 0.122
v 0 0 0 0.853 0.434 0.122
v -0.1 -0.1245579 -0.0341179 0.853 0.434 0.122
v 0 -0.1245579 -0.0341179 0.853 0.434 0.122
v -0.1 0 -0.1 0.853 0.434 0.122
v 0 0 -0.1 0.853 0.434 0.122
v -0.1 0.0566235 -0.1 0.853 0.434 0.122
v 0 0.0566235 -0.1 0.853 0.434 0.122
v -0.075 0.0566235 -0.1 0.853 0.434 0.122
v -0.05 0.03268663 -0.1 0.853 0.434 0.122
v -0.025 0.0566235 -0.1 0.853 0.434 0.122
v 0 0 0.1951863 0.853 0.434 0.122
v -0.1 0 0.1951863 0.853 0.434 0.122
v 0 0.0566235 0.1951863 0.853 0.434 0.122
v -0.1 0.0566235 0.1951863 0.853 0.434 0.122
v -0.025 0.0566235 0.1951863 0.853 0.434 0.122
v -0.05 0.03268663 0.1951863 0.853 0.434 0.122
v -0.075 0.0566235 0.1951863 0.853 0.434 0.122
v -0.025 0.0566235 -0.1 0.853 0.434 0.122
v 0 0.0566235 -0.1 0.853 0.434 0.122
v 0 0.0566235 0 0.853 0.434 0.122
v -0.025 0.0566235 0 0.853 0.434 0.122
v -0.025 0.0566235 0 0.853 0.434 0.122
v 0 0.0566235 0 0.853 0.434 0.122
v 0 0.0566235 0.09582385 0.853 0.434 0.122
v -0.025 0.0566235 0.09582385 0.853 0.434 0.122
v -0.025 0.0566235 0.09582385 0.853 0.434 0.122
v 0 0.0566235 0.09582385 0.853 0.434 0.122
v 0 0.0566235 0.1951863 0.853 0.434 0.122
v -0.025 0.0566235 0.1951863 0.853 0.434 0.122
v -0.1 0.0566235 -0.1 0.853 0.434 0.122
v -0.075 0.0566235 -0.1 0.853 0.434 0.122
v -0.075 0.0566235 0 0.853 0.434 0.122
v -0.1 0.0566235 0 0.853 0.434 0.122
v -0.075 0.0566235 0.09582385 0.853 0.434 0.122
v -0.1 0.0566235 0.09582385 0.853 0.434 0.122
v -0.1 0.0566235 0 0.853 0.434 0.122
v -0.075 0.0566235 0 0.853 0.434 0.122
v -0.1 0.0566235 0.1951863 0.853 0.434 0.122
v -0.1 0.0566235 0.09582385 0.853 0.434 0.122
v -0.075 0.0566235 0.09582385 0.853 0.434 0.122
v -0.075 0.0566235 0.1951863 0.853 0.434 0.122
v -0.075 0.0566235 0 0.853 0.434 0.122
v -0.075 0.0566235 -0.1 0.853 0.434 0.122
v -0.05 0.03268663 -0.1 0.853 0.434 0.122
v -0.05 0.03268663 0 0.853 0.434 0.122
v -0.05 0.03268663 -0.1 0.853 0.434 0.122
v -0.025 0.0566235 -0.1 0.853 0.434 0.122
v -0.025 0.0566235 0 0.853 0.434 0.122
v -0.05 0.03268663 0 0.853 0.434 0.122
v -0.05 0.03268663 0 0.853 0.434 0.122
v -0.05 0.03268663 0.09582385 0.853 0.434 0.122
v -0.075 0.0566235 0.09582385 0.853 0.434 0.122
v -0.075 0.0566235 0 0.853 0.434 0.122
v -0.05 0.03268663 0 0.853 0.434 0.122
v -0.025 0.0566235 0 0.853 0.434 0.122
v -0.025 0.0566235 0.09582385 0.853 0.434 0.122
v -0.05 0.03268663 0.09582385 0.853 0.434 0.122
v -0.075 0.0566235 0.09582385 0.853 0.434 0.122
v -0.05 0.03268663 0.09582385 0.853 0.434 0.122
v -0.05 0.03268663 0.1951863 0.853 0.434 0.122
v -0.075 0.0566235 0.1951863 0.853 0.434 0.122
v -0.05 0.03268663 0.09582385 0.853 0.434 0.122
v -0.025 0.0566235 0.09582385 0.853 0.434 0.122
v -0.025 0.0566235 0.1951863 0.853 0.434 0.122
v -0.05 0.03268663 0.1951863 0.853 0.434 0.122

vn -1 0 0
vn -1 0 0
vn -1 0 0
vn -1 0 0
vn 1 0 0
vn 1 0 0
vn 1 0 0
vn 1 0 0
vn 0 -1 0
vn 0 -1 0
vn 0 -1 0
vn 0 -1 0
vn 0 -1 0
vn 0 -1 0
vn 0 -1 0
vn 0 -1 0
vn 1 0 0
vn 1 0 0
vn 1 0 0
vn 1 0 0
vn -1 0 0
vn -1 0 0
vn -1 0 0
vn -1 0 0
vn 0 -1 0
vn 0 -1 0
vn 0 -1 0
vn 0 -1 0
vn 1 0 0
vn 1 0 0
vn 1 0 0
vn 1 0 0
vn -1 0 0
vn -1 0 0
vn -1 0 0
vn -1 0 0
vn 0 0.2641805 -0.9644732
vn 0 0.2641805 -0.9644732
vn 0 0.2641805 -0.9644732
vn 0 0.2641805 -0.9644732
vn 1 0 0
vn 1 0 0
vn 1 0 0
vn 1 0 0
vn -1 0 0
vn -1 0 0
vn -1 0 0
vn -1 0 0
vn 0 -0.2641807 0.9644732
vn 0 -0.2641807 0.9644732
vn 0 -0.2641807 0.9644732
vn 0 -0.2641807 0.9644732
vn 0 0 -1
vn 0 0 -1
vn 0 0 -1
vn 0 0 -1
vn 0 0 -1
vn 0 0 -0.9999999
vn 0 0 -1
vn 0 0 1
vn 0 0 1
vn 0 0 1
vn 0 0 1
vn 0 0 1
vn 0 0 0.9999999
vn 0 0 1
vn 0 1 0
vn 0 1 0
vn 0 1 0
vn 0 1 0
vn 0 1 0
vn 0 1 0
vn 0 1 0
vn 0 1 0
vn 0 1 0
vn 0 1 0
vn 0 1 0
vn 0 1 0
vn 0 1 0
vn 0 1 0
vn 0 1 0
vn 0 1 0
vn 0 1 0
vn 0 1 0
vn 0 1 0
vn 0 1 0
vn 0 1 0
vn 0 1 0
vn 0 1 0
vn 0 1 0
vn 0.691582 0.722298 0
vn 0.691582 0.722298 0
vn 0.691582 0.722298 0
vn 0.691582 0.722298 0
vn -0.691582 0.722298 0
vn -0.691582 0.722298 0
vn -0.691582 0.722298 0
vn -0.691582 0.722298 0
vn 0.691582 0.722298 0
vn 0.691582 0.722298 0
vn 0.691582 0.722298 0
vn 0.691582 0.722298 0
vn -0.691582 0.7222979 0
vn -0.691582 0.7222979 0
vn -0.691582 0.7222979 0
vn -0.691582 0.7222979 0
vn 0.691582 0.722298 0
vn 0.691582 0.722298 0
vn 0.691582 0.722298 0
vn 0.691582 0.722298 0
vn -0.691582 0.722298 0
vn -0.691582 0.722298 0
vn -0.691582 0.722298 0
vn -0.691582 0.722298 0

vt 0 0
vt -0.1 0
vt 0 0.0566235
vt -0.1 0.0566235
vt 0.1 0
vt 0 0
vt 0.1 0.0566235
vt 0 0.0566235
vt 0 -0.1341179
vt -0.1 -0.1341179
vt 0 -0.0341179
vt -0.1 -0.0341179
vt 0 0
vt -0.1 0
vt 0 0.09582385
vt -0.1 0.09582385
vt 0 0.0566235
vt 0 0
vt -0.09582385 0.0566235
vt -0.09582385 0
vt 0 0
vt 0 0.0566235
vt 0.09582385 0
vt 0.09582385 0.0566235
vt 0 0.09582385
vt -0.1 0.09582385
vt 0 0.1951863
vt -0.1 0.1951863
vt -0.09582385 0.0566235
vt -0.09582385 0
vt -0.1951863 0.0566235
vt -0.1951863 0
vt 0.09582385 0
vt 0.09582385 0.0566235
vt 0.1951863 0
vt 0.1951863 0.0566235
vt 0 -0.02641805
vt 0.1 -0.02641805
vt 0 -0.1555641
vt 0.1 -0.1555641
vt 0 0
vt 0.1 0
vt 0.0341179 -0.1245579
vt 0.1341179 -0.1245579
vt -0.1 0
vt 0 0
vt -0.1341179 -0.1245579
vt -0.0341179 -0.1245579
vt -0.1 0
vt 0 0
vt -0.1 -0.1291461
vt 0 -0.1291461
vt 0.1 -3.462144E-23
vt 1.97373E-15 -3.462144E-23
vt 0.1 0.0566235
vt 1.97373E-15 0.0566235
vt 0.075 0.0566235
vt 0.05 0.03268663
vt 0.025 0.0566235
vt 0 0
vt -0.1 0
vt 0 0.0566235
vt -0.1 0.0566235
vt -0.025 0.0566235
vt -0.05 0.03268663
vt -0.075 0.0566235
vt 0.025 -0.1
vt 1.234215E-10 -0.1
vt 1.234215E-10 1.449865E-10
vt 0.025 1.449865E-10
vt 0.025 -4.818312E-11
vt 2.332855E-10 -4.818312E-11
vt 2.332855E-10 0.09582385
vt 0.025 0.09582385
vt 0.025 0.09582385
vt 1.355745E-11 0.09582385
vt 1.355745E-11 0.1951863
vt 0.025 0.1951863
vt 0.1 -0.1
vt 0.075 -0.1
vt 0.075 1.449865E-10
vt 0.1 1.449865E-10
vt 0.075 0.09582385
vt 0.1 0.09582385
vt 0.1 -4.818312E-11
vt 0.075 -4.818312E-11
vt 0.1 0.1951863
vt 0.1 0.09582385
vt 0.075 0.09582385
vt 0.075 0.1951863
vt 0.075 1.449865E-10
vt 0.075 -0.1
vt 0.05 -0.1
vt 0.05 8.369529E-11
vt 0.05 -0.1
vt 0.025 -0.1
vt 0.025 1.449865E-10
vt 0.05 8.369529E-11
vt 0.05 -2.781431E-11
vt 0.05 0.09582385
vt 0.075 0.09582385
vt 0.075 -4.818312E-11
vt 0.05 -2.781431E-11
vt 0.025 -4.818312E-11
vt 0.025 0.09582385
vt 0.05 0.09582385
vt 0.075 0.09582385
vt 0.05 0.09582385
vt 0.05 0.1951863
vt 0.075 0.1951863
vt 0.05 0.09582385
vt 0.025 0.09582385
vt 0.025 0.1951863
vt 0.05 0.1951863

g Crossbow_0
usemtl Default_Prototype
f 3/3/3 4/4/4 2/2/2 1/1/1
f 7/7/7 8/8/8 6/6/6 5/5/5
f 11/11/11 12/12/12 10/10/10 9/9/9
f 15/15/15 16/16/16 14/14/14 13/13/13
f 19/19/19 20/20/20 18/18/18 17/17/17
f 23/23/23 24/24/24 22/22/22 21/21/21
f 27/27/27 28/28/28 26/26/26 25/25/25
f 31/31/31 32/32/32 30/30/30 29/29/29
f 35/35/35 36/36/36 34/34/34 33/33/33
f 39/39/39 40/40/40 38/38/38 37/37/37
f 43/43/43 44/44/44 42/42/42 41/41/41
f 47/47/47 48/48/48 46/46/46 45/45/45
f 51/51/51 52/52/52 50/50/50 49/49/49
f 70/70/70 69/69/69 68/68/68 67/67/67
f 74/74/74 73/73/73 72/72/72 71/71/71
f 78/78/78 77/77/77 76/76/76 75/75/75
f 82/82/82 81/81/81 80/80/80 79/79/79
f 84/84/84 83/83/83 86/86/86 85/85/85
f 87/87/87 90/90/90 89/89/89 88/88/88
f 91/91/91 94/94/94 93/93/93 92/92/92
f 98/98/98 97/97/97 96/96/96 95/95/95
f 101/101/101 100/100/100 99/99/99 102/102/102
f 106/106/106 105/105/105 104/104/104 103/103/103
f 110/110/110 109/109/109 108/108/108 107/107/107
f 114/114/114 113/113/113 112/112/112 111/111/111

g Crossbow_1
usemtl Default_Prototype
f 64/64/64 60/60/60 62/62/62
f 64/64/64 65/65/65 60/60/60
f 60/60/60 65/65/65 61/61/61
f 61/61/61 65/65/65 66/66/66
f 66/66/66 63/63/63 61/61/61
f 57/57/57 53/53/53 55/55/55
f 57/57/57 58/58/58 53/53/53
f 53/53/53 58/58/58 54/54/54
f 54/54/54 58/58/58 59/59/59
f 59/59/59 56/56/56 54/54/54

